<svg width="19" height="27" viewBox="0 0 19 27" fill="none" xmlns="http://www.w3.org/2000/svg">
<path d="M18.5074 1.51941C18.5074 1.06518 18.5074 0 9.49947 0C0.491531 0 0.492059 1.06518 0.492059 1.51412C0.483589 2.36435 0.331118 22.374 4.17412 26.2546C4.66382 26.7491 5.21124 27 5.80153 27H13.1979C13.7919 27 14.3431 26.7475 14.8354 26.2498C18.6863 22.3565 18.5164 2.36329 18.5074 1.51941ZM1.54929 1.69994C3.19047 0.828529 15.809 0.828529 17.4507 1.69994C17.4671 3.64659 17.4205 6.64094 17.2416 9.86824C16.6111 10.4903 16.1171 10.7846 15.6915 10.7889C15.6888 10.7889 15.6856 10.7889 15.6825 10.7889C15.2536 10.7889 14.7608 10.4951 14.1313 9.86612L13.757 9.49182L13.3827 9.86612C12.7416 10.5078 12.1825 10.8217 11.6743 10.8259C11.6701 10.8259 11.6664 10.8265 11.6626 10.8265C11.1613 10.8265 10.616 10.5247 9.99659 9.90477L9.62229 9.53047L9.248 9.90477C7.98324 11.1701 7.097 11.1791 5.86135 9.94341L5.48706 9.56912L5.11276 9.94341C4.49335 10.5634 3.94965 10.8588 3.43453 10.8281C2.94324 10.8048 2.39635 10.4887 1.76582 9.86718C1.58371 6.642 1.53447 3.64924 1.54929 1.69994ZM14.0826 25.5055C13.7925 25.7982 13.5029 25.9412 13.1979 25.9412H5.80153C5.50029 25.9412 5.21388 25.7998 4.92641 25.5097C3.14282 23.7086 2.26029 17.3239 1.85477 11.3209C2.37465 11.6772 2.87441 11.8615 3.38318 11.8864C4.082 11.9192 4.77606 11.6423 5.48547 11.0393C6.18006 11.6338 6.85135 11.9245 7.52635 11.9245C7.53376 11.9245 7.54118 11.9239 7.54859 11.9239C8.22994 11.9176 8.91182 11.6153 9.62229 11.0022C10.3238 11.6026 11.0242 11.8837 11.6838 11.8853C12.3641 11.8789 13.0449 11.5772 13.7549 10.9657C14.4468 11.5724 15.0541 11.8482 15.6809 11.8482C15.6878 11.8482 15.6941 11.8482 15.701 11.8477C16.178 11.8435 16.6465 11.6767 17.1521 11.3273C16.7498 17.3224 15.8699 23.6986 14.0826 25.5055Z" fill="#6A697E" stroke="#6A697E" stroke-width="0.25"/>
</svg>
