<svg width="33" height="33" viewBox="0 0 33 33" fill="none" xmlns="http://www.w3.org/2000/svg">
<g clip-path="url(#clip0)">
<path d="M25.1433 12.0912H7.91815C7.31865 12.0912 6.83094 11.6035 6.83094 11.0038V9.59352C6.83094 8.99377 7.31865 8.50606 7.91815 8.50606H25.1433C25.743 8.50606 26.2307 8.99377 26.2307 9.59352V11.0038C26.2307 11.6035 25.743 12.0912 25.1433 12.0912ZM7.91815 9.47291C7.85168 9.47291 7.7978 9.52705 7.7978 9.59352V11.0038C7.7978 11.0702 7.85168 11.1244 7.91815 11.1244H25.1433C25.2098 11.1244 25.2639 11.0702 25.2639 11.0038V9.59352C25.2639 9.52705 25.2098 9.47291 25.1433 9.47291H7.91815Z" fill="#6A697E" stroke="#6A697E" stroke-width="0.1"/>
<path d="M22.2163 3.52072H18.3846C17.8846 3.52072 17.4777 3.11408 17.4777 2.61404V0.842226C17.4777 0.34218 17.8846 -0.0644531 18.3844 -0.0644531H22.2163C22.4585 -0.0644531 22.6861 0.0299664 22.8573 0.20118C23.0285 0.372394 23.123 0.60026 23.123 0.842477V2.61404C23.123 3.11408 22.7161 3.52072 22.2163 3.52072ZM18.4445 2.55386H22.1561V0.902402H18.4445V2.55386ZM22.2163 0.902402H22.2168H22.2163Z" fill="#6A697E" stroke="#6A697E" stroke-width="0.1"/>
<path d="M23.8569 14.6899H9.20452C8.6093 14.6899 8.11203 14.2437 8.04757 13.652L7.83078 11.6602C7.81593 11.5237 7.85974 11.3872 7.95139 11.285C8.04329 11.1828 8.17396 11.1244 8.31144 11.1244H24.7502C24.8875 11.1244 25.0184 11.1828 25.11 11.285C25.2017 11.3872 25.2458 11.5237 25.2309 11.6602L25.0139 13.652C24.9494 14.2437 24.4521 14.6899 23.8569 14.6899ZM8.85026 12.0912L9.00863 13.5473C9.01971 13.6475 9.10381 13.723 9.20452 13.723H23.8567C23.9574 13.723 24.0417 13.6475 24.0525 13.5473L24.2112 12.0912H8.85026Z" fill="#6A697E" stroke="#6A697E" stroke-width="0.1"/>
<path d="M20.1166 32.9375H12.9448C11.6899 32.9375 10.641 31.9966 10.5052 30.7493L9.00057 16.9285C8.97615 16.7047 9.1096 16.4935 9.32236 16.4197C11.0005 15.8365 13.357 15.3451 16.7145 16.7306C19.009 17.6773 21.7409 17.2783 23.3831 16.6488C23.6323 16.5531 23.9118 16.6778 24.0075 16.9273C24.1029 17.1765 23.9785 17.456 23.729 17.5517C23.0746 17.8027 19.643 18.9851 16.3457 17.6245C13.5262 16.4607 11.4927 16.7475 10.0042 17.2125L11.4666 30.6445C11.5489 31.4006 12.1844 31.9707 12.9448 31.9707H20.1169C20.8773 31.9707 21.5128 31.4006 21.5951 30.6445C21.6238 30.3792 21.8615 30.187 22.1282 30.2163C22.3935 30.2452 22.5852 30.4839 22.5564 30.7493C22.4202 31.9966 21.3715 32.9375 20.1166 32.9375Z" fill="#6A697E" stroke="#6A697E" stroke-width="0.1"/>
<path d="M24.4698 9.47317H8.59168C8.42248 9.47317 8.26587 9.38479 8.17825 9.24027C8.09037 9.09574 8.08483 8.91597 8.16289 8.7659C8.83364 7.48079 9.80856 6.35053 10.9849 5.49395V3.36209C10.9849 2.76234 11.4729 2.27463 12.0724 2.27463H13.4829C14.0824 2.27463 14.5701 2.76234 14.5701 3.36209V3.89512C14.8216 3.84224 15.0807 3.79868 15.342 3.7657C15.6077 3.73221 15.8489 3.92004 15.8824 4.18492C15.9156 4.4498 15.728 4.69151 15.4631 4.725C15.1794 4.76101 14.8994 4.81011 14.6313 4.87179C14.381 4.9292 14.1219 4.87003 13.921 4.70989C13.719 4.54926 13.6032 4.30905 13.6032 4.05097V3.36209C13.6032 3.29562 13.5493 3.24148 13.4829 3.24148H12.0724C12.0059 3.24148 11.952 3.29562 11.952 3.36209V5.55816C11.952 5.82832 11.8198 6.08439 11.5985 6.24352C10.7449 6.85662 10.0075 7.62909 9.4344 8.50606H23.6268C23.0537 7.62934 22.3165 6.85662 21.4629 6.24352C21.2416 6.08439 21.1094 5.82832 21.1094 5.55816V3.52071H19.4582V4.05097C19.4582 4.30905 19.3424 4.54926 19.1405 4.71015C18.9393 4.87028 18.6802 4.9292 18.4302 4.87179C18.162 4.81036 17.8821 4.76101 17.5983 4.725C17.3334 4.69177 17.1456 4.4498 17.1791 4.18492C17.2123 3.92004 17.4548 3.73221 17.7191 3.7657C17.9808 3.79894 18.2398 3.84224 18.4911 3.89537V3.03729C18.4911 2.77039 18.7077 2.55386 18.9745 2.55386H21.5931C21.86 2.55386 22.0765 2.77039 22.0765 3.03729V5.49395C23.2529 6.35053 24.228 7.48079 24.8986 8.7659C24.9766 8.91597 24.9711 9.09574 24.8834 9.24027C24.7958 9.38479 24.639 9.47317 24.4698 9.47317Z" fill="#6A697E" stroke="#6A697E" stroke-width="0.1"/>
<path d="M20.1166 32.9375H12.9448C11.6899 32.9375 10.641 31.9966 10.5052 30.7493L8.70976 14.2589C8.69491 14.1221 8.73872 13.9859 8.83062 13.8837C8.92227 13.7815 9.0532 13.7231 9.19042 13.7231H23.871C24.0085 13.7231 24.1392 13.7815 24.2311 13.8837C24.3227 13.9857 24.3665 14.1221 24.3517 14.2589L23.5377 21.7349C23.509 22.0002 23.2705 22.1924 23.0049 22.1634C22.7392 22.1344 22.5476 21.8957 22.5763 21.6304L23.3322 14.6899H9.72924L11.4666 30.6445C11.5489 31.4006 12.1844 31.9707 12.9448 31.9707H20.1166C20.877 31.9707 21.5125 31.4004 21.5949 30.6445L22.3308 23.8864C22.3596 23.621 22.599 23.4291 22.8636 23.4581C23.1293 23.487 23.3209 23.7257 23.2922 23.9911L22.5562 30.7493C22.4202 31.9966 21.3715 32.9375 20.1166 32.9375Z" fill="#6A697E" stroke="#6A697E" stroke-width="0.1"/>
</g>
<defs>
<clipPath id="clip0">
<rect width="33" height="33" fill="white"/>
</clipPath>
</defs>
</svg>
