<?xml version="1.0" encoding="utf-8"?>
<!-- Generator: Adobe Illustrator 21.0.2, SVG Export Plug-In . SVG Version: 6.00 Build 0)  -->
<svg version="1.1" id="Слой_1" xmlns="http://www.w3.org/2000/svg"
	 width="375" height="425" viewBox="0 0 375 250" style="enable-background:new 0 0 375 425;" xml:space="preserve">
<style type="text/css">
	.st0{fill:#456CFB;}
	.st1{fill:#4848F4;}
</style>
<path class="st0" d="M292,69.4c-56-14.6-59.9-7-131,28.9l41.3,171.5L449.6,259L431.4,23.3C418.7,38.2,342.5,82.6,292,69.4z"/>
<g>
	<path class="st1" d="M99,76.6C58.4,88.9,40.5,69.9-43.5,49.2l12.9,265.3l421.6-6.8l27.5-250.3c0,0-50,49.6-149,25.8
		C202.6,67.3,190,49.2,99,76.6z"/>
	<polyline class="st1" points="418.5,314.5 418.5,712.3 -43.5,712.3 -43.5,49.2 	"/>
	<path class="st1" d="M360.7,331"/>
	<polygon class="st1" points="360.7,348.2 421.3,314.5 418.5,57.5 	"/>
	<path class="st1" d="M458,335.1"/>
</g>
</svg>
