<svg width="172" height="224" viewBox="0 0 172 224" fill="none" xmlns="http://www.w3.org/2000/svg">
<path d="M90.6361 1.96464C88.1091 -0.65488 84.0157 -0.65488 81.4678 1.96464C78.1471 5.40418 0.227051 86.6321 0.227051 134.285C0.247935 183.327 38.7381 223.234 86.0624 223.234C133.387 223.234 171.877 183.327 171.877 134.285C171.877 86.6321 93.9567 5.40418 90.6361 1.96464ZM86.0624 209.795C45.8806 209.795 13.1963 175.924 13.1963 134.285C13.1963 101.598 62.1078 42.123 86.0624 16.3151C110.017 42.123 158.928 101.598 158.928 134.285C158.928 175.924 126.244 209.795 86.0624 209.795Z" fill="white"/>
</svg>
