<?xml version="1.0" encoding="utf-8"?>
<!-- Generator: Adobe Illustrator 21.0.2, SVG Export Plug-In . SVG Version: 6.00 Build 0)  -->
<svg version="1.1" id="Слой_1" xmlns="http://www.w3.org/2000/svg" xmlns:xlink="http://www.w3.org/1999/xlink" x="0px" y="0px"
	 viewBox="0 0 40 40" style="enable-background:new 0 0 40 40;" xml:space="preserve">
<style type="text/css">
	.st0{fill:#FFFFFF;fill-opacity:0.5;}
	.st1{fill:#4848F4;}
</style>
<g>
	<path class="st0" d="M9.2,0.2h21.5c5,0,9,4,9,9v21.5c0,5-4,9-9,9H9.2c-5,0-9-4-9-9V9.2C0.2,4.3,4.3,0.2,9.2,0.2z"/>
</g>
<path class="st1" d="M13.2,20.2c-0.6,0.6-0.6,1.5,0,2.1l9.5,9.5c0.6,0.6,1.5,0.6,2.1,0s0.6-1.5,0-2.1l-8.5-8.5l8.5-8.5
	c0.6-0.6,0.6-1.5,0-2.1s-1.5-0.6-2.1,0L13.2,20.2z M16.2,19.7h-2v3h2V19.7z"/>
</svg>
