<?xml version="1.0" encoding="utf-8"?>
<!-- Generator: Adobe Illustrator 21.0.2, SVG Export Plug-In . SVG Version: 6.00 Build 0)  -->
<svg version="1.1" id="Слой_1" xmlns="http://www.w3.org/2000/svg" xmlns:xlink="http://www.w3.org/1999/xlink" x="0px" y="0px"
	 viewBox="0 0 40 40" style="enable-background:new 0 0 40 40;" xml:space="preserve">
<style type="text/css">
	.st0{fill:#FFFFFF;fill-opacity:0.5;}
	.st1{clip-path:url(#SVGID_2_);}
	.st2{fill:#4848F4;}
</style>
<g>
	<path class="st0" d="M9.2,0.2h21.5c5,0,9,4,9,9v21.5c0,5-4,9-9,9H9.2c-5,0-9-4-9-9V9.2C0.2,4.3,4.3,0.2,9.2,0.2z"/>
</g>
<g>
	<defs>
		<rect id="SVGID_1_" x="7.8" y="7.8" width="24.5" height="24.5"/>
	</defs>
	<clipPath id="SVGID_2_">
		<use xlink:href="#SVGID_1_"  style="overflow:visible;"/>
	</clipPath>
	<g class="st1">
		<path class="st2" d="M19.5,8c0.8,0,1.4,0.3,2,0.8c0.5,0.5,0.8,1.2,0.8,2c0,0.4-0.1,0.8-0.2,1.1c-0.1,0.3-0.3,0.6-0.6,0.9
			c-0.2,0.2-0.5,0.4-0.9,0.6c-0.3,0.1-0.7,0.2-1.1,0.2c-0.4,0-0.8-0.1-1.1-0.2c-0.3-0.1-0.6-0.3-0.9-0.6c-0.2-0.2-0.4-0.5-0.6-0.9
			c-0.1-0.3-0.2-0.7-0.2-1.1c0-0.4,0.1-0.7,0.2-1.1c0.1-0.3,0.3-0.6,0.6-0.9c0.2-0.2,0.5-0.4,0.9-0.6S19.1,8,19.5,8z M20.6,32
			c-0.8,0-1.5-0.2-1.9-0.5c-0.4-0.3-0.7-0.7-0.9-1.1c-0.2-0.4-0.3-0.8-0.3-1.2c0-0.4,0-0.6,0-0.7v-9.2c0-0.4-0.1-0.7-0.2-0.9
			c-0.1-0.2-0.2-0.4-0.4-0.5s-0.3-0.1-0.5,0c-0.2,0-0.4,0.1-0.5,0.3c0.1-0.7,0.4-1.2,0.8-1.6c0.4-0.4,0.8-0.7,1.3-0.9
			c0.5-0.2,1-0.3,1.6-0.3c0.5,0,1,0.1,1.5,0.4c0.5,0.2,0.8,0.6,1.1,1c0.3,0.4,0.4,1,0.4,1.6V27c0,0.4,0,0.8,0,1.1
			c0,0.3,0.1,0.5,0.2,0.7c0.1,0.2,0.3,0.3,0.5,0.4c0.2,0.1,0.5,0.1,0.9,0.1c-0.1,0.5-0.3,1-0.6,1.3c-0.3,0.3-0.6,0.6-1.1,0.9
			C22,31.9,21.4,32,20.6,32z"/>
	</g>
</g>
</svg>
