<?xml version="1.0" encoding="utf-8"?>
<!-- Generator: Adobe Illustrator 21.0.2, SVG Export Plug-In . SVG Version: 6.00 Build 0)  -->
<svg version="1.1" id="Слой_1" xmlns="http://www.w3.org/2000/svg" xmlns:xlink="http://www.w3.org/1999/xlink" x="0px" y="0px"
	 viewBox="0 0 375 457" style="enable-background:new 0 0 375 457;" xml:space="preserve">
<style type="text/css">
	.st0{fill:#FBFBFB;}
</style>
<g>
	<g>
		<path class="st0" d="M-394,285c-107.4-109-222.2-57.3-275.9-10.3c-6.9,6-11.8,14.7-14,24.5l-83.5,373.3
			c-6.3,28.4,11.7,56.2,36.4,56.2H-5.5c21.7,0,38.9-21.6,37.6-47.3L12,269.8c-1.7-34-33.4-53.4-57.7-35.2
			C-144.7,308.4-298.6,381.8-394,285z"/>
		<path class="st0" d="M295.6,242.2C164.2,133.2,23.8,185-41.8,232c-8.4,6-14.5,14.7-17.2,24.5l-102.2,373.3
			c-7.8,28.4,14.3,56.2,44.6,56.2h887.2c26.5,0,47.6-21.6,46-47.3L792,227c-2-34-40.9-53.4-70.6-35.2
			C600.4,265.6,412.2,339.1,295.6,242.2z"/>
	</g>
	<g>
		<path class="st0" d="M-442,560.6c-107.4-109-222.2-57.3-275.9-10.3c-6.9,6-11.8,14.7-14,24.5l-83.5,373.3
			c-6.3,28.4,11.7,56.2,36.4,56.2h725.5c21.7,0,38.9-21.6,37.6-47.3L-36,545.3c-1.7-34-33.4-53.4-57.7-35.2
			C-192.7,583.9-346.6,657.4-442,560.6z"/>
		<path class="st0" d="M247.6,517.8c-131.3-109-271.7-57.3-337.3-10.3c-8.4,6-14.5,14.7-17.2,24.5l-102.2,373.3
			c-7.8,28.4,14.3,56.2,44.6,56.2h887.2c26.5,0,47.6-21.6,46-47.3L744,502.6c-2-34-40.9-53.4-70.6-35.2
			C552.4,541.2,364.2,614.6,247.6,517.8z"/>
	</g>
</g>
</svg>
