<svg width="120" height="120" viewBox="0 0 120 120" fill="none" xmlns="http://www.w3.org/2000/svg">
<g filter="url(#filter0_d)">
<rect x="40.4815" y="36" width="39.5185" height="39.5185" rx="9" fill="white" fill-opacity="0.5"/>
</g>
<g clip-path="url(#clip0)">
<path d="M59.7515 43.7719C60.5221 43.7719 61.1802 44.0435 61.7257 44.589C62.2688 45.1321 62.5403 45.7902 62.5403 46.5608C62.5403 46.9571 62.467 47.3216 62.3177 47.6592C62.1685 47.9944 61.9728 48.288 61.7233 48.5351C61.4737 48.7821 61.1802 48.9803 60.8328 49.1295C60.4878 49.2788 60.1258 49.3521 59.749 49.3521C59.3527 49.3521 58.9882 49.2788 58.6506 49.1295C58.313 48.9803 58.0219 48.7821 57.7748 48.5351C57.5277 48.288 57.3295 47.9968 57.1803 47.6592C57.0311 47.3241 56.9577 46.9571 56.9577 46.5608C56.9577 46.1841 57.0311 45.8245 57.1803 45.4771C57.3295 45.1297 57.5253 44.8337 57.7748 44.5866C58.0219 44.3395 58.313 44.1413 58.6506 43.9921C58.9882 43.8429 59.3552 43.7719 59.7515 43.7719ZM60.8205 67.7465C59.9888 67.7465 59.3576 67.5826 58.9221 67.2572C58.4867 66.9319 58.176 66.56 57.9876 66.1441C57.7993 65.7282 57.6965 65.3319 57.6769 64.9576C57.6574 64.5809 57.6476 64.3436 57.6476 64.2457V55.018C57.6476 54.6217 57.5938 54.311 57.4837 54.0835C57.376 53.8559 57.2366 53.7018 57.0678 53.6235C56.899 53.5452 56.7228 53.5306 56.5345 53.5795C56.3461 53.6284 56.1724 53.7238 56.0158 53.8608C56.1553 53.1881 56.417 52.6401 56.8011 52.2144C57.1877 51.7887 57.6329 51.4732 58.1369 51.2652C58.6408 51.0573 59.1594 50.9643 59.6952 50.9839C60.2285 51.0035 60.7227 51.1282 61.1777 51.3557C61.6327 51.5832 62.0095 51.9184 62.3055 52.3636C62.6015 52.8089 62.7507 53.3471 62.7507 53.9807V62.7314C62.7507 63.1473 62.7654 63.502 62.7948 63.8005C62.8241 64.0989 62.8975 64.3436 63.0174 64.5417C63.1373 64.7399 63.3085 64.8818 63.536 64.9723C63.7635 65.0604 64.0742 65.1069 64.4705 65.1069C64.3507 65.6206 64.1452 66.0658 63.8467 66.4426C63.5898 66.7777 63.218 67.0811 62.7336 67.3477C62.2492 67.612 61.6107 67.7465 60.8205 67.7465Z" fill="#4848F4"/>
</g>
<defs>
<filter id="filter0_d" x="0.481476" y="0" width="119.519" height="119.519" filterUnits="userSpaceOnUse" color-interpolation-filters="sRGB">
<feFlood flood-opacity="0" result="BackgroundImageFix"/>
<feColorMatrix in="SourceAlpha" type="matrix" values="0 0 0 0 0 0 0 0 0 0 0 0 0 0 0 0 0 0 127 0"/>
<feOffset dy="4"/>
<feGaussianBlur stdDeviation="20"/>
<feColorMatrix type="matrix" values="0 0 0 0 0.945098 0 0 0 0 0.94902 0 0 0 0 0.984314 0 0 0 1 0"/>
<feBlend mode="normal" in2="BackgroundImageFix" result="effect1_dropShadow"/>
<feBlend mode="normal" in="SourceGraphic" in2="effect1_dropShadow" result="shape"/>
</filter>
<clipPath id="clip0">
<rect width="24.4638" height="24.4638" fill="white" transform="translate(48.0088 43.5273)"/>
</clipPath>
</defs>
</svg>
