<svg width="47" height="48" viewBox="0 0 47 48" fill="none" xmlns="http://www.w3.org/2000/svg">
<path d="M24.1045 28.0704C24.8435 27.3329 26.0403 27.3329 26.7796 28.0704C27.0868 28.3672 27.5752 28.363 27.8774 28.0608C28.1795 27.7586 28.1841 27.2702 27.8869 26.9627C26.5356 25.6148 24.3481 25.6148 22.9968 26.9627C22.7 27.2702 22.7042 27.7586 23.0064 28.0608C23.3085 28.363 23.797 28.3672 24.1045 28.0704Z" fill="#6A697E"/>
<path d="M46.2173 31.4324H37.1309L38.5079 16.9407C38.5301 16.72 38.4574 16.4997 38.3082 16.3356C38.1587 16.1711 37.9468 16.0782 37.7245 16.0793H33.8691L35.4155 10.3091L41.6145 4.10975C42.5324 3.19216 42.5324 1.7039 41.6145 0.785925C40.6969 -0.131665 39.2086 -0.131665 38.291 0.785925L31.6476 7.43281C31.6158 7.46418 31.5875 7.49822 31.5619 7.53455C31.3163 7.80612 31.1381 8.13162 31.0421 8.48466L29.0053 16.0793H13.6415L11.2188 11.9519C11.7933 11.4444 12.2049 10.7788 12.4023 10.0379C12.4665 9.79506 12.5074 9.54644 12.5247 9.29553C13.7494 9.63595 15.0586 9.20259 15.8385 8.19855C16.6184 7.19452 16.7141 5.81871 16.081 4.716C13.8496 0.86357 9.05242 -0.657969 5.00837 1.20437L4.5972 0.490644C4.38109 0.115805 3.90183 -0.0127111 3.52699 0.203777C3.15177 0.419883 3.02325 0.899142 3.23974 1.27398L3.65092 1.98541C0.00886074 4.55267 -1.0732 9.47453 1.15594 13.3327C1.79088 14.4281 3.02287 15.034 4.27782 14.8676C5.53314 14.7016 6.5651 13.7967 6.89328 12.5738C6.89328 12.5597 6.89327 12.5455 6.90016 12.5321C7.43679 12.7961 8.02582 12.9345 8.62365 12.9372C9.04363 12.9341 9.46054 12.8634 9.85833 12.7272L12.5763 17.3576L15.0697 43.5382C15.2552 45.5604 16.9558 47.1053 18.9864 47.0969H32.0714H32.1173C40.3327 47.0877 46.9903 40.4312 47.0007 32.2158C47.0007 31.7832 46.6503 31.4324 46.2173 31.4324ZM32.5514 8.89048C32.5881 8.76005 32.6589 8.64186 32.7568 8.54815C32.7836 8.52137 32.8084 8.49269 32.831 8.46209L39.4025 1.89361C39.71 1.59718 40.1985 1.60177 40.5006 1.90394C40.8024 2.20649 40.8063 2.69493 40.5094 3.00206L34.1643 9.34717C34.0672 9.44432 33.9972 9.56519 33.9624 9.69829L32.2473 16.0793H30.629L32.5514 8.89048ZM30.4622 22.1353C30.2798 22.1085 30.0973 22.0825 29.9137 22.0668C29.8778 22.0668 29.8418 22.0668 29.8051 22.0622C29.5599 22.0443 29.314 22.0339 29.0681 22.0374H29.0294L30.2044 17.6449H31.8277L30.6198 22.154C30.567 22.146 30.5146 22.1429 30.4622 22.1353ZM28.5823 17.646L27.3549 22.2275C25.6842 22.5752 24.1515 23.4032 22.9452 24.6104C22.0574 25.4985 20.9524 26.1392 19.7407 26.4693L14.5622 17.646H28.5823ZM14.7274 5.49933C15.1371 6.24633 14.8751 7.18381 14.1376 7.6099C13.3998 8.036 12.4566 7.79426 12.0148 7.066C10.9324 5.08969 9.42382 3.37881 7.59897 2.05732C10.4554 1.63849 13.2789 3.00206 14.7274 5.49933ZM5.38359 12.1711C5.21989 12.7834 4.70353 13.2367 4.07548 13.3197C3.44705 13.4027 2.83048 13.099 2.5134 12.5501C1.06644 10.0471 1.29555 6.91377 3.09172 4.64791C3.32466 6.89159 4.05368 9.05571 5.22639 10.9827C5.43523 11.3418 5.49222 11.7698 5.38359 12.1711ZM6.58078 10.1994C4.43196 6.47238 4.26367 3.39756 5.09214 2.91906C5.92099 2.44057 8.50202 4.12314 10.6539 7.84934C11.303 8.97424 10.9171 10.412 9.79216 11.0611C8.66764 11.7102 7.22948 11.3243 6.58078 10.1994ZM18.0738 26.7232C17.0155 26.7592 15.9621 26.5622 14.9883 26.1464L14.4562 20.5606L18.0738 26.7232ZM18.9849 45.5325C17.7655 45.5352 16.7458 44.6069 16.6349 43.3925L15.1527 27.8692C16.3748 28.2773 17.6749 28.3966 18.9512 28.2176L19.6921 29.4798C19.8329 29.7189 20.0899 29.8658 20.3672 29.8658C20.5053 29.8654 20.6403 29.8279 20.7589 29.7579C21.1318 29.5387 21.2565 29.0591 21.0381 28.6862L20.5508 27.8566C21.8696 27.4297 23.0687 26.6965 24.0498 25.7173C25.159 24.6108 26.5987 23.8959 28.1505 23.6805C28.3559 23.6519 28.562 23.6312 28.767 23.6197L28.8845 23.614C29.0803 23.6063 29.2761 23.6071 29.4712 23.614L29.6185 23.6205C29.8097 23.632 30.0002 23.6515 30.1895 23.679C30.2358 23.6855 30.2813 23.6909 30.3276 23.6985C30.5295 23.731 30.7304 23.7723 30.93 23.8224C32.2048 24.1353 33.3695 24.7913 34.2982 25.7188C34.6057 26.0156 35.0942 26.0114 35.3963 25.7093C35.6985 25.4071 35.7027 24.9187 35.4059 24.6111C34.4814 23.6882 33.3611 22.984 32.1283 22.5511L33.4491 17.646H36.8659L35.5532 31.4324H18.0172C17.5846 31.4324 17.2339 31.7832 17.2339 32.2158C17.2415 37.8659 20.4479 43.0245 25.5109 45.5325H18.9849ZM32.1173 45.5325C25.0707 45.5237 19.2469 40.0335 18.8235 32.9991H20.4035C20.4812 34.168 20.7332 35.3185 21.1505 36.4132C21.2668 36.7165 21.5583 36.9169 21.883 36.9166C21.9786 36.9162 22.0735 36.899 22.1626 36.8649C22.5669 36.7104 22.7692 36.2579 22.6147 35.8536C22.264 34.9383 22.0471 33.9768 21.971 32.9991H42.2593C41.9598 36.9437 39.4002 40.357 35.6974 41.7489C31.9941 43.1412 27.82 42.2595 24.9961 39.4892C24.6867 39.1862 24.1906 39.1916 23.8876 39.501C23.5847 39.8101 23.5901 40.3066 23.8995 40.6095C27.1736 43.8212 32.019 44.8314 36.304 43.1951C40.589 41.5588 43.5277 37.576 43.8275 32.9991H45.4114C44.988 40.0335 39.1642 45.5237 32.1173 45.5325Z" fill="#6A697E"/>
<path d="M22.6331 36.9158C23.066 36.9158 23.4164 36.565 23.4164 36.1325V35.3491C23.4164 34.9165 23.066 34.5658 22.6331 34.5658C22.2005 34.5658 21.8497 34.9165 21.8497 35.3491V36.1325C21.8497 36.565 22.2005 36.9158 22.6331 36.9158Z" fill="#6A697E"/>
<path d="M25.7664 39.2658C26.1994 39.2658 26.5498 38.9151 26.5498 38.4825V37.6991C26.5498 37.2665 26.1994 36.9158 25.7664 36.9158C25.3338 36.9158 24.9831 37.2665 24.9831 37.6991V38.4825C24.9831 38.9151 25.3338 39.2658 25.7664 39.2658Z" fill="#6A697E"/>
<path d="M34.3831 36.9158C34.8161 36.9158 35.1665 36.565 35.1665 36.1325V35.3491C35.1665 34.9165 34.8161 34.5658 34.3831 34.5658C33.9505 34.5658 33.5998 34.9165 33.5998 35.3491V36.1325C33.5998 36.565 33.9505 36.9158 34.3831 36.9158Z" fill="#6A697E"/>
<path d="M31.2498 40.0491C31.6827 40.0491 32.0331 39.6984 32.0331 39.2658V38.4825C32.0331 38.0499 31.6827 37.6991 31.2498 37.6991C30.8172 37.6991 30.4664 38.0499 30.4664 38.4825V39.2658C30.4664 39.6984 30.8172 40.0491 31.2498 40.0491Z" fill="#6A697E"/>
<path d="M28.8998 36.9158C29.3327 36.9158 29.6831 36.565 29.6831 36.1325V35.3491C29.6831 34.9165 29.3327 34.5658 28.8998 34.5658C28.4672 34.5658 28.1164 34.9165 28.1164 35.3491V36.1325C28.1164 36.565 28.4672 36.9158 28.8998 36.9158Z" fill="#6A697E"/>
</svg>
