<?xml version="1.0" encoding="utf-8"?>
<!-- Generator: Adobe Illustrator 21.0.2, SVG Export Plug-In . SVG Version: 6.00 Build 0)  -->
<svg version="1.1" id="Слой_1" xmlns="http://www.w3.org/2000/svg"
	 width="190" height="250" viewBox="0 0 190 250" style="enable-background:new 0 0 190 250;" xml:space="preserve">
<style type="text/css">
	.st0{fill:#FFFFFF;}
	.st1{fill:#B1C2FF;}
	.st2{fill:#456CFB;}
	.st3{fill:url(#SVGID_1_);}
</style>
<g>
	<path class="st0" d="M38.5,77.1L94.6,7.6l62.5,77.6l27.1,58.3l-8.8,41.6l-27.1,38.5l-47.9,19.2L53,232.2L10.1,185v-50.3L38.5,77.1z
		"/>
</g>
<path class="st1" d="M69.7,149.4l-53.2-8.6l-8.8,30.1l175.4,17.2v-26.7c-14.2-10.6-48.1-29.6-70.2-20.6
	C90.9,149.7,74.9,150.2,69.7,149.4z"/>
<path class="st2" d="M107.2,143.4c-17.5-17.9-56.8-5-76.2,0v37.9l136.6-10.1l19.9-5.9l-10.6-41.1
	C160.9,138.1,124.7,161.4,107.2,143.4z"/>
<linearGradient id="SVGID_1_" gradientUnits="userSpaceOnUse" x1="125.1821" y1="70.293" x2="71.6523" y2="72.3737" gradientTransform="matrix(1 0 0 -1 0 252)">
	<stop  offset="0" style="stop-color:#4848F4"/>
	<stop  offset="1" style="stop-color:#4848F4"/>
</linearGradient>
<path class="st3" d="M5.1,138.5c12.6-8.3,44-23.6,68.8-18.6c30.9,6.2,61.8,45.9,88.3,35.4c11.4-4.5,17.1-9.8,19.7-14.3l1.1-9.3
	c0.9,2,1,5.4-1.1,9.3l-5.2,41.6l-31.5,44.1l-52.4,14.3L41,226.6l-29.7-44.1L5.1,138.5z"/>
<path class="st0" d="M100,3.6c-2.8-2.9-7.3-2.9-10.1,0C86.3,7.4,0.6,97.3,0.6,150.1c0,54.3,42.3,98.5,94.4,98.5
	c52,0,94.3-44.2,94.3-98.5C189.4,97.3,103.7,7.4,100,3.6z M95,233.7c-44.2,0-80.1-37.5-80.1-83.6C14.9,113.9,68.7,48,95,19.5
	c26.3,28.6,80.1,94.5,80.1,130.7C175.1,196.2,139.2,233.7,95,233.7z"/>
</svg>
