<?xml version="1.0" encoding="utf-8"?>
<!-- Generator: Adobe Illustrator 21.0.2, SVG Export Plug-In . SVG Version: 6.00 Build 0)  -->
<svg version="1.1" id="Слой_1" xmlns="http://www.w3.org/2000/svg"
	 width="276" height="336" viewBox="0 0 276 336" style="enable-background:new 0 0 276 336;" xml:space="preserve">
<style type="text/css">
	.st0{fill:#FFFFFF;}
	.st1{fill:#B1C2FF;}
	.st2{fill:#456CFB;}
	.st3{fill:url(#SVGID_1_);}
</style>
<g>
	<path class="st0" d="M79.1,115.7l56.6-69.5l62.9,77.6l27.3,58.3l-8.9,41.6l-27.3,38.5l-48.3,19.2l-47.7-10.5l-43.2-47.2v-50.3
		L79.1,115.7z"/>
</g>
<path class="st1" d="M110.5,188l-53.6-8.6l-8.8,30.1l176.7,17.2V200c-14.3-10.6-48.5-29.6-70.7-20.6
	C131.9,188.3,115.8,188.8,110.5,188z"/>
<path class="st2" d="M148.3,182.1c-17.6-17.9-57.2-5-76.8,0v37.9l137.6-10.1l20-5.9l-10.7-41.1C202.4,176.7,165.9,200,148.3,182.1z"
	/>
<linearGradient id="SVGID_1_" gradientUnits="userSpaceOnUse" x1="166.4642" y1="115.6624" x2="112.5412" y2="117.7584" gradientTransform="matrix(1 0 0 -1 0 336)">
	<stop  offset="0" style="stop-color:#4848F4"/>
	<stop  offset="1" style="stop-color:#4848F4"/>
</linearGradient>
<path class="st3" d="M45.4,177.1c12.7-8.3,44.4-23.6,69.3-18.6c31.1,6.2,62.3,45.9,89,35.4c11.5-4.5,17.3-9.8,19.8-14.3l1.2-9.3
	c0.9,2,1,5.4-1.2,9.3l-5.2,41.6l-31.8,44.1l-52.7,14.3l-52.1-14.3l-29.9-44.1L45.4,177.1z"/>
<path class="st0" d="M141.1,42.2c-2.8-2.9-7.3-2.9-10.2,0c-3.7,3.8-90,93.8-90,146.5c0,54.3,42.7,98.5,95.1,98.5
	c52.4,0,95-44.2,95-98.5C231.1,135.9,144.8,46,141.1,42.2z M136.1,272.4c-44.5,0-80.7-37.5-80.7-83.6c0-36.2,54.2-102.1,80.7-130.7
	c26.5,28.6,80.7,94.5,80.7,130.7C216.8,234.8,180.6,272.4,136.1,272.4z"/>
</svg>
