<svg id="Capa_1" enable-background="new 0 0 511.871 511.871" height="512" viewBox="0 0 511.871 511.871" width="512" xmlns="http://www.w3.org/2000/svg"><path d="m135.815 401.715-4.442 4.442c-24.151 24.151-24.151 63.449 0 87.601 12.075 12.076 27.937 18.114 43.8 18.114s31.725-6.038 43.801-18.114l4.482-4.482z"/><path d="m443.392 138.934 63.794-63.793-75.14-75.141-63.829 63.828z"/><path d="m328.036 66.454c-54.664-15.193-115.775-1.352-158.675 41.548l-72.161 72.161c-6.234-2.778-13.033-4.253-20.063-4.253-13.172 0-25.556 5.129-34.869 14.444l-37.582 37.582 274.69 274.438 37.457-37.456c14.823-14.823 18.206-36.809 10.173-54.915l72.179-72.179c42.938-42.937 56.766-104.117 41.509-158.818z"/></svg>