<svg width="104" height="120" viewBox="0 0 104 120" fill="none" xmlns="http://www.w3.org/2000/svg">
<g filter="url(#filter0_d)">
<rect x="24" y="36" width="39.5185" height="39.5185" rx="9" fill="white" fill-opacity="0.5"/>
</g>
<path fill-rule="evenodd" clip-rule="evenodd" d="M40.4494 53.0124C40.264 52.5955 39.8757 52.2812 39.4194 52.2812H32.841C32.2887 52.2812 31.841 51.8335 31.841 51.2812V50.9366C31.841 50.3843 32.2887 49.9366 32.841 49.9366H39.4194C39.8757 49.9366 40.264 49.6223 40.4494 49.2054C41.1793 47.5642 42.824 46.4198 44.736 46.4198C47.3257 46.4198 49.4251 48.5192 49.4251 51.1089C49.4251 53.6986 47.3257 55.798 44.736 55.798C42.824 55.798 41.1793 54.6536 40.4494 53.0124ZM51.7697 50.9366C51.7697 50.3843 52.2174 49.9366 52.7697 49.9366H54.2865C54.8388 49.9366 55.2865 50.3843 55.2865 50.9366V51.2812C55.2865 51.8335 54.8388 52.2812 54.2865 52.2812H52.7697C52.2174 52.2812 51.7697 51.8335 51.7697 51.2812V50.9366ZM34.588 64.7352C34.4026 64.3183 34.0144 64.0039 33.5581 64.0039H32.841C32.2887 64.0039 31.841 63.5562 31.841 63.0039V62.6594C31.841 62.1071 32.2887 61.6594 32.841 61.6594H33.5581C34.0143 61.6594 34.4026 61.345 34.588 60.9281C35.3179 59.2869 36.9626 58.1425 38.8746 58.1425C41.4644 58.1425 43.5637 60.2419 43.5637 62.8316C43.5637 65.4214 41.4644 67.5207 38.8746 67.5207C36.9626 67.5207 35.3179 66.3764 34.588 64.7352ZM45.9083 63.0039C45.9083 63.5562 46.356 64.0039 46.9083 64.0039H54.2865C54.8388 64.0039 55.2865 63.5562 55.2865 63.0039V62.6594C55.2865 62.1071 54.8388 61.6594 54.2865 61.6594H46.9083C46.356 61.6594 45.9083 62.1071 45.9083 62.6594V63.0039ZM41.2192 62.8316C41.2192 64.1265 40.1695 65.1762 38.8746 65.1762C37.5798 65.1762 36.5301 64.1265 36.5301 62.8316C36.5301 61.5368 37.5798 60.4871 38.8746 60.4871C40.1695 60.4871 41.2192 61.5368 41.2192 62.8316ZM47.0806 51.1089C47.0806 52.4038 46.0309 53.4534 44.736 53.4534C43.4412 53.4534 42.3915 52.4038 42.3915 51.1089C42.3915 49.814 43.4412 48.7644 44.736 48.7644C46.0309 48.7644 47.0806 49.814 47.0806 51.1089Z" fill="#4848F4"/>
<defs>
<filter id="filter0_d" x="-16" y="0" width="119.519" height="119.519" filterUnits="userSpaceOnUse" color-interpolation-filters="sRGB">
<feFlood flood-opacity="0" result="BackgroundImageFix"/>
<feColorMatrix in="SourceAlpha" type="matrix" values="0 0 0 0 0 0 0 0 0 0 0 0 0 0 0 0 0 0 127 0"/>
<feOffset dy="4"/>
<feGaussianBlur stdDeviation="20"/>
<feColorMatrix type="matrix" values="0 0 0 0 0.945098 0 0 0 0 0.94902 0 0 0 0 0.984314 0 0 0 1 0"/>
<feBlend mode="normal" in2="BackgroundImageFix" result="effect1_dropShadow"/>
<feBlend mode="normal" in="SourceGraphic" in2="effect1_dropShadow" result="shape"/>
</filter>
</defs>
</svg>
