<?xml version="1.0" encoding="utf-8"?>
<!-- Generator: Adobe Illustrator 21.0.2, SVG Export Plug-In . SVG Version: 6.00 Build 0)  -->
<svg version="1.1" id="Слой_1" xmlns="http://www.w3.org/2000/svg" xmlns:xlink="http://www.w3.org/1999/xlink" x="0px" y="0px"
	 viewBox="0 0 40 40" style="enable-background:new 0 0 40 40;" xml:space="preserve">
<style type="text/css">
	.st0{fill:#6A697E;}
</style>
<path class="st0" d="M29.1,12.7h-1.4H10.9c-0.7,0-1.3,0.6-1.3,1.3v7.4c0,5.3,4.3,9.7,9.7,9.7c4.5,0,8.2-3,9.3-7.1H29
	c3.1,0,5.6-2.5,5.6-5.6C34.7,15.2,32.2,12.7,29.1,12.7z M26.4,21.4c0,3.9-3.2,7.1-7.1,7.1s-7.1-3.2-7.1-7.1v-6.1h14.2V21.4z
	 M29.1,21.4H29v-6.1h0.1c1.6,0,3,1.4,3,3C32.1,20,30.8,21.4,29.1,21.4z"/>
</svg>
