<svg width="324" height="80" viewBox="0 0 324 80" fill="none" xmlns="http://www.w3.org/2000/svg">
<path opacity="0.4" d="M19.2648 78.46L0.289785 16.36H17.9998L27.8898 53.735L39.5048 16.13H54.5698L66.2998 53.85L76.4198 16.36H93.7848L74.5798 78.46H58.8248L46.9798 40.625L34.9048 78.46H19.2648ZM119.636 79.15C113.58 79.15 108.52 77.4633 104.456 74.09C100.47 70.7167 98.4764 66.04 98.4764 60.06C98.4764 53.5433 100.7 48.6367 105.146 45.34C109.67 42.0433 115.726 40.395 123.316 40.395C128.453 40.395 133.475 41.2383 138.381 42.925V41.89C138.381 34.3767 133.973 30.62 125.156 30.62C119.866 30.62 114.193 31.7317 108.136 33.955L103.766 20.615C111.28 17.3183 119.253 15.67 127.686 15.67C136.963 15.67 143.901 17.97 148.501 22.57C152.948 27.0167 155.171 33.5717 155.171 42.235V78H138.266V71.33C133.59 76.5433 127.38 79.15 119.636 79.15ZM124.926 67.075C128.99 67.075 132.286 66.0783 134.816 64.085C137.346 62.015 138.611 59.4083 138.611 56.265V53.16C135.315 51.6267 131.596 50.86 127.456 50.86C123.623 50.86 120.633 51.6267 118.486 53.16C116.416 54.6167 115.381 56.7633 115.381 59.6C115.381 61.9 116.263 63.74 118.026 65.12C119.79 66.4233 122.09 67.075 124.926 67.075ZM190.467 79.035C184.717 79.035 180.27 77.655 177.127 74.895C174.06 72.0583 172.527 67.2667 172.527 60.52V31.31H165.167V16.36H172.527V0.604996H190.007V16.36H204.497V31.31H190.007V57.645C190.007 61.6317 191.885 63.625 195.642 63.625C198.708 63.625 201.583 62.8967 204.267 61.44V75.47C200.28 77.8467 195.68 79.035 190.467 79.035ZM244.906 79.38C235.553 79.38 227.848 76.4283 221.791 70.525C215.735 64.545 212.706 56.8017 212.706 47.295C212.706 38.325 215.581 30.735 221.331 24.525C227.081 18.315 234.365 15.21 243.181 15.21C252.918 15.21 260.355 18.43 265.491 24.87C270.628 31.31 273.196 39.245 273.196 48.675C273.196 49.595 273.12 51.1283 272.966 53.275H230.071C230.915 57.185 232.64 60.175 235.246 62.245C237.853 64.315 241.15 65.35 245.136 65.35C250.58 65.35 255.563 63.2417 260.086 59.025L270.091 67.88C263.881 75.5467 255.486 79.38 244.906 79.38ZM229.841 42.35H256.176C255.64 38.3633 254.221 35.1817 251.921 32.805C249.698 30.4283 246.785 29.24 243.181 29.24C239.655 29.24 236.703 30.4283 234.326 32.805C232.026 35.105 230.531 38.2867 229.841 42.35ZM286.224 78V16.36H303.704V28.78C307.69 19.35 314.245 14.8267 323.369 15.21V33.495H322.449C316.469 33.495 311.83 35.335 308.534 39.015C305.314 42.6183 303.704 48.0233 303.704 55.23V78H286.224Z" fill="white"/>
</svg>
