<?xml version="1.0" encoding="utf-8"?>
<!-- Generator: Adobe Illustrator 21.0.2, SVG Export Plug-In . SVG Version: 6.00 Build 0)  -->
<svg version="1.1" id="Слой_1" xmlns="http://www.w3.org/2000/svg" xmlns:xlink="http://www.w3.org/1999/xlink" x="0px" y="0px"
	 viewBox="0 0 19 27" style="enable-background:new 0 0 19 27;" xml:space="preserve">
<style type="text/css">
	.st0{fill:#6A697E;stroke:#6A697E;stroke-width:0.75;}
</style>
<path class="st0" d="M16,4.9c0-0.3,0-1.1-6.5-1.1S3,4.5,3,4.9c0,0.6-0.1,15,2.7,17.8c0.4,0.4,0.7,0.5,1.2,0.5h5.3
	c0.4,0,0.8-0.2,1.2-0.5C16.1,19.9,16,5.5,16,4.9z M3.8,5c1.2-0.6,10.3-0.6,11.5,0c0,1.4,0,3.6-0.2,5.9c-0.5,0.4-0.8,0.7-1.1,0.7
	c0,0,0,0,0,0c-0.3,0-0.7-0.2-1.1-0.7l-0.3-0.3l-0.3,0.3c-0.5,0.5-0.9,0.7-1.2,0.7c0,0,0,0,0,0c-0.4,0-0.8-0.2-1.2-0.7l-0.3-0.3
	l-0.3,0.3c-0.9,0.9-1.6,0.9-2.4,0l-0.3-0.3l-0.3,0.3c-0.4,0.4-0.8,0.7-1.2,0.6c-0.4,0-0.7-0.2-1.2-0.7C3.8,8.6,3.8,6.4,3.8,5z
	 M12.8,22.2c-0.2,0.2-0.4,0.3-0.6,0.3H6.8c-0.2,0-0.4-0.1-0.6-0.3C4.9,20.9,4.3,16.3,4,11.9c0.4,0.3,0.7,0.4,1.1,0.4
	c0.5,0,1-0.2,1.5-0.6c0.5,0.4,1,0.6,1.5,0.6c0,0,0,0,0,0c0.5,0,1-0.2,1.5-0.7c0.5,0.4,1,0.6,1.5,0.6c0.5,0,1-0.2,1.5-0.7
	c0.5,0.4,0.9,0.6,1.4,0.6c0,0,0,0,0,0c0.3,0,0.7-0.1,1-0.4C14.7,16.3,14.1,20.9,12.8,22.2z"/>
</svg>
