<svg width="36" height="36" viewBox="0 0 36 36" fill="none" xmlns="http://www.w3.org/2000/svg">
<g clip-path="url(#clip0)">
<path d="M25.8651 23.8826C25.8651 23.0816 25.4907 22.368 24.9032 21.9099C25.4906 21.4519 25.8717 20.7383 25.8717 19.9373C25.8717 19.0941 25.4353 18.3475 24.7939 17.8942C25.4396 17.3841 25.8386 16.5951 25.8386 15.7103V10.4583L20.7825 3.87478H21.8935V0H14.0735V3.87478H15.2548L10.1283 10.4583V15.7104C10.1283 16.5952 10.5615 17.3842 11.2072 17.8943C10.5659 18.3476 10.1547 19.0941 10.1547 19.9375C10.1547 20.7384 10.538 21.452 11.1254 21.9101C10.538 22.3682 10.1614 23.0818 10.1614 23.8827C10.1614 24.726 10.5647 25.4725 11.2061 25.9258C10.5604 26.4359 10.1283 27.2249 10.1283 28.1097V32.6185C10.1283 34.153 11.4119 35.4365 12.9463 35.4365H15.7643V35.3902C16.2333 35.7502 16.8195 36.0001 17.4551 36.0001H18.5823C19.2179 36.0001 19.804 35.7502 20.2731 35.3902V35.4365H23.091C24.6255 35.4365 25.8386 34.1529 25.8386 32.6185V28.1097C25.8386 27.2249 25.4406 26.436 24.7949 25.9258C25.4363 25.4725 25.8651 24.7259 25.8651 23.8826ZM15.1303 2.81798V1.05673H20.8368V2.81798H15.1303ZM16.5881 3.87478H19.4492L24.2724 10.1448H11.7649L16.5881 3.87478ZM23.3729 22.4736C24.1693 22.4736 24.8171 23.1214 24.8171 23.9178C24.8171 24.7141 24.1693 25.362 23.3729 25.362H21.9639V26.4187H23.0911C24.0429 26.4187 24.7819 27.1578 24.7819 28.1095V32.6183C24.7819 33.5701 24.0429 34.3796 23.0911 34.3796H21.1097C21.2732 33.9569 21.3651 33.5967 21.3651 33.1819H20.3084C20.3084 34.1337 19.5341 34.9432 18.5823 34.9432H17.4551C16.5034 34.9432 15.729 34.1338 15.729 33.1819H14.6723C14.6723 33.5968 14.7642 33.9569 14.9277 34.3796H12.9463C11.9946 34.3796 11.185 33.5701 11.185 32.6183V28.1095C11.185 27.1578 11.9945 26.4187 12.9463 26.4187H18.5823V25.362H12.6645C11.8682 25.362 11.2203 24.7141 11.2203 23.9178C11.2203 23.1214 11.8682 22.4736 12.6645 22.4736H18.5823V21.4168H12.6645C11.8682 21.4168 11.2203 20.769 11.2203 19.9726C11.2203 19.1763 11.8682 18.5284 12.6645 18.5284H18.5823V17.4717H12.9463C11.9946 17.4717 11.185 16.6622 11.185 15.7104V11.2016H24.7819V15.7104C24.7819 16.6622 24.0429 17.4717 23.0911 17.4717H21.9639V18.5284H23.3729C24.1693 18.5284 24.8171 19.1763 24.8171 19.9726C24.8171 20.769 24.1693 21.4168 23.3729 21.4168H21.9639V22.4736H23.3729Z" fill="#6A697E"/>
<path d="M15.2009 7.8904H14.0738V8.94712H15.2009V7.8904Z" fill="#6A697E"/>
<path d="M16.3282 6.76321H15.201V7.81994H16.3282V6.76321Z" fill="#6A697E"/>
<path d="M20.837 21.4168H19.7098V22.4736H20.837V21.4168Z" fill="#6A697E"/>
<path d="M20.837 17.4716H19.7098V18.5283H20.837V17.4716Z" fill="#6A697E"/>
<path d="M20.837 25.362H19.7098V26.4187H20.837V25.362Z" fill="#6A697E"/>
</g>
<defs>
<clipPath id="clip0">
<rect width="36" height="36" fill="white"/>
</clipPath>
</defs>
</svg>
