<svg width="45" height="46" viewBox="0 0 45 46" fill="none" xmlns="http://www.w3.org/2000/svg">
<path d="M40.479 18.5484H37.6555C37.6934 18.0818 37.7196 17.5891 37.7317 17.0645H37.7419C38.5425 17.0645 39.1936 16.399 39.1936 15.5806V14.0968C39.1936 13.2784 38.5425 12.6129 37.7419 12.6129H14.5161C13.7155 12.6129 13.0645 13.2784 13.0645 14.0968V15.5806C13.0645 16.399 13.7155 17.0645 14.5161 17.0645H14.5257C14.6235 21.16 15.5286 23.3702 16.4845 25.7C16.8264 26.5333 17.1762 27.3915 17.4984 28.3606C16.9746 28.4435 16.4621 28.5667 15.9575 28.713C14.3956 25.7192 11.7313 23.7419 8.70968 23.7419C3.90688 23.7419 0 28.7344 0 34.871C0 41.0075 3.90688 46 8.70968 46C10.3814 46 11.9389 45.3849 13.2662 44.3372C15.1179 45.4222 17.2925 46 19.5968 46C24.6593 46 28.9125 43.1562 30.1252 39.3226H31.2299C32.2548 39.3226 33.1032 38.6104 33.3385 37.6319C35.5581 37.2475 37.6728 36.3164 39.4831 34.9079C42.9381 32.2209 45 27.8324 45 23.1699C45 20.6213 42.9721 18.5484 40.479 18.5484ZM36.7939 23H40.4084C40.5392 23 40.6452 23.1083 40.6452 23.242C40.6452 26.2126 39.4927 28.9764 37.4829 30.8258C36.386 31.8358 35.0971 32.5665 33.7153 32.9835C34.1544 29.6513 34.973 27.6491 35.7736 25.7C36.1344 24.8193 36.4877 23.9542 36.7939 23ZM14.5161 14.0968H37.7419L37.7434 15.5806H14.5161V14.0968ZM19.5968 29.6774C24.7717 29.6774 28.9837 32.9716 29.028 37.0323C28.7608 36.8638 28.5053 36.6805 28.2434 36.4914C27.1915 35.7317 25.9997 34.871 23.7135 34.871C21.4265 34.871 20.2333 35.7317 19.1818 36.4907C18.5371 36.9559 17.9527 37.3721 17.1408 37.6163C17.3162 36.7356 17.4194 35.8198 17.4194 34.871C17.4194 33.1534 17.1043 31.5323 16.5585 30.0781C17.5335 29.8162 18.5502 29.6774 19.5968 29.6774ZM15.9677 34.871C15.9677 40.1616 12.7445 44.4672 8.77134 44.5118C8.93614 44.2372 9.11688 43.9753 9.30258 43.7061C10.0458 42.6301 10.8871 41.4111 10.8871 39.0733C10.8871 36.7356 10.045 35.5158 9.30258 34.4406C8.59485 33.4154 7.98387 32.5303 7.98387 30.6628C7.98387 28.7967 8.59485 27.9124 9.30258 26.8879C9.61197 26.4398 9.92916 25.9811 10.1989 25.4319C13.4891 26.3485 15.9677 30.2317 15.9677 34.871ZM1.45161 34.871C1.45161 29.5811 4.67415 25.2754 8.6466 25.2302C8.4818 25.5033 8.30247 25.7645 8.11748 26.0322C7.37431 27.1075 6.53226 28.3258 6.53226 30.6628C6.53226 33.0006 7.37431 34.2203 8.11677 35.2952C8.8245 36.3208 9.43548 37.2058 9.43548 39.0733C9.43548 40.9409 8.8245 41.8259 8.11748 42.8504C7.80738 43.2993 7.4902 43.7601 7.21944 44.31C3.93027 43.3934 1.45161 39.5102 1.45161 34.871ZM19.5968 44.5161C17.7461 44.5161 15.9351 44.0785 14.3992 43.2786C15.3965 42.1755 16.1999 40.7952 16.7247 39.224C18.2359 38.9806 19.1807 38.3075 20.0185 37.7036C21.0207 36.9794 21.8865 36.3548 23.7135 36.3548C25.539 36.3548 26.404 36.9794 27.4063 37.7029C27.8447 38.0191 28.2933 38.3434 28.8306 38.619C27.934 41.9824 24.1352 44.5161 19.5968 44.5161ZM31.2299 37.8387H30.4374C30.463 37.5931 30.4839 37.3475 30.4839 37.0968C30.4839 32.1872 25.5999 28.1935 19.5968 28.1935C19.3891 28.1935 19.1846 28.2091 18.9791 28.2189C18.6133 27.0643 18.2143 26.0753 17.8244 25.1265C16.8881 22.8442 16.0716 20.8543 15.9773 17.0652H36.2808C36.1865 20.8543 35.3707 22.8449 34.4336 25.1265C33.347 27.7722 32.1162 30.7718 31.9536 37.1095C31.9436 37.5116 31.6183 37.8387 31.2299 37.8387ZM38.6042 33.7269C37.075 34.917 35.3055 35.731 33.4431 36.1092C33.4683 35.564 33.504 35.0543 33.5452 34.5638C35.3547 34.1276 37.0424 33.227 38.4525 31.9286C40.7678 29.7991 42.0961 26.6325 42.0961 23.242C42.0968 22.2907 41.3391 21.5161 40.4084 21.5161H37.204C37.3124 21.051 37.4095 20.5612 37.4885 20.0323H40.479C42.1723 20.0323 43.5484 21.439 43.5484 23.1699C43.5484 27.3723 41.6999 31.3185 38.6042 33.7269Z" fill="#6A697E"/>
<path d="M19.2123 8.64565C18.456 9.12892 17.4194 9.79043 17.4194 11.129H18.871C18.871 10.6624 19.2091 10.3976 19.9813 9.90419C20.7376 9.422 21.7742 8.7594 21.7742 7.4208C21.7742 6.08257 20.7376 5.42069 19.9813 4.9367C19.2098 4.44328 18.871 4.17846 18.871 3.7104C18.871 3.24307 19.2091 2.97825 19.9806 2.48483C20.7376 2.00083 21.7742 1.33932 21.7742 0H20.3226C20.3226 0.468057 19.9838 0.732879 19.2123 1.22629C18.456 1.71029 17.4194 2.3718 17.4194 3.7104C17.4194 5.04973 18.456 5.7116 19.213 6.19523C19.9845 6.68865 20.3226 6.95347 20.3226 7.4208C20.3226 7.88814 19.9845 8.15223 19.2123 8.64565Z" fill="#6A697E"/>
<path d="M23.5678 6.19523C24.3393 6.68865 24.6774 6.95347 24.6774 7.4208C24.6774 7.88814 24.3393 8.15223 23.5671 8.64565C22.8108 9.12892 21.7742 9.79043 21.7742 11.129H23.2258C23.2258 10.6624 23.5639 10.3976 24.3361 9.90419C25.0924 9.422 26.129 8.7594 26.129 7.4208C26.129 6.08257 25.0924 5.42069 24.3361 4.9367C23.5646 4.44328 23.2258 4.17846 23.2258 3.7104C23.2258 3.24307 23.5639 2.97825 24.3354 2.48483C25.0924 2.00083 26.129 1.33932 26.129 0H24.6774C24.6774 0.468057 24.3386 0.732879 23.5671 1.22629C22.8108 1.71029 21.7742 2.3718 21.7742 3.7104C21.7742 5.04973 22.8108 5.7116 23.5678 6.19523Z" fill="#6A697E"/>
<path d="M27.9226 6.19523C28.6942 6.68865 29.0323 6.95347 29.0323 7.4208C29.0323 7.88814 28.6942 8.15223 27.9219 8.64565C27.1656 9.12892 26.129 9.79043 26.129 11.129H27.5806C27.5806 10.6624 27.9187 10.3976 28.691 9.90419C29.4473 9.422 30.4839 8.7594 30.4839 7.4208C30.4839 6.08257 29.4473 5.42069 28.691 4.9367C27.9194 4.44328 27.5806 4.17846 27.5806 3.7104C27.5806 3.24307 27.9187 2.97825 28.6903 2.48483C29.4473 2.00083 30.4839 1.33932 30.4839 0H29.0323C29.0323 0.468057 28.6935 0.732879 27.9219 1.22629C27.1656 1.71029 26.129 2.3718 26.129 3.7104C26.129 5.04973 27.1656 5.7116 27.9226 6.19523Z" fill="#6A697E"/>
<path d="M32.2775 6.19523C33.049 6.68865 33.3871 6.95347 33.3871 7.4208C33.3871 7.88814 33.049 8.15223 32.2768 8.64565C31.5205 9.12892 30.4839 9.79043 30.4839 11.129H31.9355C31.9355 10.6624 32.2736 10.3976 33.0458 9.90419C33.8021 9.422 34.8387 8.7594 34.8387 7.4208C34.8387 6.08257 33.8021 5.42069 33.0458 4.9367C32.2743 4.44328 31.9355 4.17846 31.9355 3.7104C31.9355 3.24307 32.2736 2.97825 33.0451 2.48483C33.8021 2.00083 34.8387 1.33932 34.8387 0H33.3871C33.3871 0.468057 33.0483 0.732879 32.2768 1.22629C31.5205 1.71029 30.4839 2.3718 30.4839 3.7104C30.4839 5.04973 31.5205 5.7116 32.2775 6.19523Z" fill="#6A697E"/>
</svg>
