<?xml version="1.0" encoding="utf-8"?>
<!-- Generator: Adobe Illustrator 21.0.2, SVG Export Plug-In . SVG Version: 6.00 Build 0)  -->
<svg version="1.1" id="Слой_1" xmlns="http://www.w3.org/2000/svg" xmlns:xlink="http://www.w3.org/1999/xlink" x="0px" y="0px"
	 viewBox="0 0 40 40" style="enable-background:new 0 0 40 40;" xml:space="preserve">
<style type="text/css">
	.st0{fill:#FFFFFF;fill-opacity:0.5;}
	.st1{fill:#4848F4;}
</style>
<g>
	<path class="st0" d="M9.2,0h21.5c5,0,9,4,9,9v21.5c0,5-4,9-9,9H9.2c-5,0-9-4-9-9V9C0.2,4,4.3,0,9.2,0z"/>
</g>
<path class="st1" d="M16.4,17.3c-0.2-0.4-0.6-0.7-1-0.7H8.8c-0.6,0-1-0.4-1-1v-0.3c0-0.6,0.4-1,1-1h6.6c0.5,0,0.8-0.3,1-0.7
	c0.7-1.6,2.4-2.8,4.3-2.8c2.6,0,4.7,2.1,4.7,4.7c0,2.6-2.1,4.7-4.7,4.7C18.8,20,17.2,18.9,16.4,17.3z M27.8,15.2c0-0.6,0.4-1,1-1
	h1.5c0.6,0,1,0.4,1,1v0.3c0,0.6-0.4,1-1,1h-1.5c-0.6,0-1-0.4-1-1V15.2z M10.6,29c-0.2-0.4-0.6-0.7-1-0.7H8.8c-0.6,0-1-0.4-1-1v-0.3
	c0-0.6,0.4-1,1-1h0.7c0.5,0,0.8-0.3,1-0.7c0.7-1.6,2.4-2.8,4.3-2.8c2.6,0,4.7,2.1,4.7,4.7c0,2.6-2.1,4.7-4.7,4.7
	C13,31.8,11.3,30.6,10.6,29z M21.9,27.2c0,0.6,0.4,1,1,1h7.4c0.6,0,1-0.4,1-1v-0.3c0-0.6-0.4-1-1-1h-7.4c-0.6,0-1,0.4-1,1V27.2z
	 M17.2,27.1c0,1.3-1,2.3-2.3,2.3c-1.3,0-2.3-1-2.3-2.3c0-1.3,1-2.3,2.3-2.3C16.2,24.7,17.2,25.8,17.2,27.1z M23.1,15.3
	c0,1.3-1,2.3-2.3,2.3c-1.3,0-2.3-1-2.3-2.3c0-1.3,1-2.3,2.3-2.3C22,13,23.1,14.1,23.1,15.3z"/>
</svg>
