<svg width="41" height="44" viewBox="0 0 41 44" fill="none" xmlns="http://www.w3.org/2000/svg">
<g clip-path="url(#clip0)">
<path d="M40.1992 17.7461H33.6328V15.927C33.6328 15.4524 33.2742 15.0677 32.832 15.0677H15.5352C15.093 15.0677 14.7344 15.4524 14.7344 15.927C14.7344 16.4017 15.093 16.7864 15.5352 16.7864H32.0312V23.3749C32.0312 29.1626 29.1519 34.5418 24.5025 37.4687H9.13035C4.48093 34.5419 1.60156 29.1626 1.60156 23.375V16.7865H6.9668C7.40899 16.7865 7.76758 16.4018 7.76758 15.9271C7.76758 15.4525 7.40899 15.0678 6.9668 15.0678H0.800781C0.35859 15.0678 0 15.4525 0 15.9271V23.375C0 26.6234 0.813594 29.8086 2.35286 32.586C3.39091 34.4592 4.73782 36.1133 6.31512 37.4687H0.800781C0.35859 37.4687 0 37.8535 0 38.3281C0 41.4556 2.37087 44 5.28516 44H30.2695C33.1838 44 35.5547 41.4556 35.5547 38.3281C35.5547 37.8535 35.1961 37.4687 34.7539 37.4687H27.3177C28.7694 36.2213 30.0253 34.7202 31.0255 33.0286H33.2858C37.5394 33.0286 41 29.3148 41 24.75V18.6055C41 18.1308 40.6415 17.7461 40.1992 17.7461ZM33.8654 39.1875C33.4988 40.9554 32.0257 42.2812 30.2695 42.2812H5.28516C3.52896 42.2812 2.05593 40.9554 1.68925 39.1875H8.91582H24.717H33.8654ZM33.6328 23.375V22.9023H36.1953V24.75C36.1953 26.4717 34.8901 27.8724 33.2858 27.8724H33.104C33.4535 26.4109 33.6328 24.9 33.6328 23.375ZM39.3984 24.75C39.3984 28.3671 36.6563 31.3099 33.2858 31.3099H31.9229C32.1786 30.7495 32.407 30.1757 32.6065 29.5911H33.2858C35.7733 29.5911 37.7969 27.4194 37.7969 24.75V22.043C37.7969 21.5683 37.4383 21.1836 36.9961 21.1836H33.6328V19.4648H39.3984V24.75Z" fill="#6A697E"/>
<path d="M17.5811 4.75604L17.1644 4.19461C16.5528 3.37064 16.5519 2.21882 17.1623 1.39365C17.4373 1.02188 17.3793 0.481336 17.0329 0.186313C16.6864 -0.108882 16.1827 -0.0465778 15.9078 0.325188C14.8313 1.78063 14.8329 3.8121 15.9117 5.26548L16.3283 5.82691C17.1276 6.9037 17.1288 8.4089 16.3312 9.48733L15.9042 10.0647C15.6292 10.4364 15.6872 10.977 16.0336 11.272C16.1809 11.3974 16.3565 11.4583 16.5309 11.4583C16.7668 11.4583 17.0006 11.3469 17.1587 11.1331L17.5857 10.5558C18.8494 8.84718 18.8475 6.46224 17.5811 4.75604Z" fill="#6A697E"/>
<path d="M22.0197 6.68826L21.6031 6.12691C20.9914 5.30286 20.9906 4.15104 21.6009 3.32587C21.8759 2.9541 21.8179 2.41355 21.4715 2.11853C21.125 1.82333 20.6214 1.88564 20.3464 2.2574C19.27 3.71284 19.2716 5.74432 20.3503 7.19778L20.767 7.75921C21.5662 8.83609 21.5674 10.3414 20.7698 11.4197L20.3429 11.997C20.0679 12.3687 20.1259 12.9093 20.4723 13.2043C20.6196 13.3297 20.7952 13.3905 20.9696 13.3905C21.2055 13.3905 21.4393 13.2791 21.5974 13.0653L22.0242 12.4881C23.2879 10.7796 23.2861 8.39463 22.0197 6.68826Z" fill="#6A697E"/>
<path d="M13.1424 6.68834L12.7258 6.12699C12.1141 5.30303 12.1133 4.15112 12.7235 3.32595C12.9985 2.95418 12.9405 2.41364 12.5941 2.11853C12.2476 1.82342 11.744 1.88581 11.469 2.2574C10.3927 3.71284 10.3943 5.7444 11.473 7.19777L11.8897 7.7592C12.6889 8.83609 12.6901 10.3414 11.8926 11.4196L11.4656 11.9969C11.1906 12.3686 11.2485 12.9092 11.5949 13.2043C11.7422 13.3297 11.9177 13.3906 12.0922 13.3906C12.3281 13.3906 12.5619 13.2792 12.7199 13.0655L13.147 12.4882C14.4106 10.7796 14.4088 8.39471 13.1424 6.68834Z" fill="#6A697E"/>
<path d="M12.0341 15.3192C11.8852 15.1594 11.6786 15.0674 11.468 15.0674C11.2574 15.0674 11.0508 15.1594 10.9018 15.3192C10.753 15.4799 10.6672 15.7008 10.6672 15.9268C10.6672 16.1528 10.7529 16.3745 10.9018 16.5352C11.0508 16.6951 11.2574 16.7862 11.468 16.7862C11.6786 16.7862 11.8852 16.6951 12.0341 16.5352C12.1838 16.3745 12.2688 16.1537 12.2688 15.9268C12.2688 15.7008 12.1838 15.4791 12.0341 15.3192Z" fill="#6A697E"/>
<path d="M28.9883 22.5156C28.5461 22.5156 28.1875 22.9004 28.1875 23.375C28.1875 26.5649 26.9818 29.6998 24.8796 31.9759C24.5683 32.3129 24.5706 32.8571 24.8847 33.1912C25.0408 33.3573 25.2446 33.4403 25.4484 33.4403C25.6545 33.4402 25.8607 33.3553 26.0172 33.1857C28.4143 30.5904 29.7891 27.0145 29.7891 23.375C29.7891 22.9004 29.4305 22.5156 28.9883 22.5156Z" fill="#6A697E"/>
<path d="M23.5338 34.3084C23.3164 33.895 22.828 33.7489 22.4429 33.9821L22.4246 33.9932C22.0393 34.2264 21.9033 34.7505 22.1205 35.1639C22.2677 35.4439 22.5391 35.6012 22.8187 35.6012C22.952 35.6012 23.0872 35.5654 23.2114 35.4902L23.2297 35.4791C23.615 35.2459 23.751 34.7218 23.5338 34.3084Z" fill="#6A697E"/>
</g>
<defs>
<clipPath id="clip0">
<rect width="41" height="44" fill="white"/>
</clipPath>
</defs>
</svg>
